<?xml version="1.0" encoding="UTF-8"?>
<!DOCTYPE svg PUBLIC "-//W3C//DTD SVG 1.1//EN" "http://www.w3.org/Graphics/SVG/1.1/DTD/svg11.dtd">
<svg xmlns="http://www.w3.org/2000/svg" width="660px" height="256px" viewBox="0 0 285.15 110.8">
  <path fill="#82D982" d="M168.75 10.38c6.95,3.26 11.75,10.32 11.75,18.5 0,11.28 -9.14,20.42 -20.43,20.42 -11.28,0 -20.42,-9.14 -20.42,-20.42 0,-8.18 4.8,-15.24 11.75,-18.5l2.73 5.83c-4.75,2.23 -8.04,7.06 -8.04,12.67 0,7.72 6.26,13.98 13.98,13.98 7.73,0 13.99,-6.26 13.99,-13.98 0,-5.61 -3.29,-10.44 -8.04,-12.67l2.73 -5.83z"/>
  <path fill="#8DE6E6" filter="drop-shadow(1px 1px 1px rgba(0,0,0,0.3))" d="M66.18 63.74l88.17 0 5.72 -9.87 5.73 9.87 88.17 0c3.77,0 6.85,3.09 6.85,6.86l0 20.38c0,3.77 -3.09,6.85 -6.85,6.85l-187.79 0c-3.77,0 -6.85,-3.08 -6.85,-6.85l0 -20.38c0,-3.77 3.08,-6.86 6.85,-6.86z"/>
  <path fill="#333333" fill-rule="nonzero" d="M247.38 87.46l0 -15.8 1.6 0 0 15.8 -1.6 0zm-7.69 -0.97c1.03,0.01 1.83,-0.38 2.39,-1.16 0.57,-0.78 0.85,-1.84 0.85,-3.19 0.01,-0.83 -0.1,-1.59 -0.32,-2.26 -0.22,-0.68 -0.56,-1.22 -1.02,-1.62 -0.46,-0.4 -1.05,-0.6 -1.77,-0.61 -1.01,-0.02 -1.81,0.34 -2.39,1.08 -0.58,0.74 -0.88,1.78 -0.89,3.14 0,0.82 0.11,1.58 0.33,2.27 0.22,0.7 0.56,1.26 1.03,1.69 0.46,0.43 1.05,0.65 1.79,0.66zm-0.04 1.13c-0.86,0 -1.6,-0.16 -2.2,-0.47 -0.6,-0.31 -1.09,-0.73 -1.47,-1.27 -0.37,-0.54 -0.64,-1.15 -0.81,-1.85 -0.17,-0.69 -0.25,-1.42 -0.25,-2.18 0.02,-1.15 0.25,-2.12 0.69,-2.92 0.44,-0.79 1.03,-1.4 1.76,-1.81 0.74,-0.41 1.56,-0.62 2.47,-0.62 1.13,0 2.04,0.27 2.74,0.79 0.7,0.52 1.2,1.22 1.52,2.08 0.31,0.87 0.46,1.81 0.45,2.83 -0.02,1.15 -0.24,2.13 -0.67,2.93 -0.42,0.81 -1,1.43 -1.73,1.85 -0.74,0.42 -1.57,0.64 -2.5,0.64zm-11.61 -0.16l0 -10.8 1.37 0 0.09 1.43c0.12,-0.16 0.32,-0.35 0.6,-0.57 0.35,-0.26 0.76,-0.5 1.23,-0.71 0.47,-0.2 0.96,-0.31 1.46,-0.31 0.24,0 0.45,0.01 0.63,0.03 0.17,0.02 0.3,0.05 0.4,0.09l0 1.5c-0.1,-0.06 -0.24,-0.11 -0.43,-0.16 -0.19,-0.05 -0.49,-0.08 -0.89,-0.08 -0.45,0 -0.86,0.08 -1.24,0.23 -0.39,0.15 -0.73,0.33 -1.02,0.54 -0.24,0.18 -0.44,0.34 -0.6,0.49l0 8.32 -1.6 0zm-5.11 0.16c-0.44,0 -0.85,-0.07 -1.22,-0.2 -0.38,-0.14 -0.68,-0.4 -0.91,-0.78 -0.22,-0.39 -0.34,-0.97 -0.34,-1.74l0 -7.06 -1.49 0 0 -0.87c0.35,-0.1 0.69,-0.18 1.02,-0.25 0.34,-0.07 0.55,-0.21 0.63,-0.43 0.04,-0.11 0.08,-0.3 0.13,-0.55 0.05,-0.26 0.1,-0.53 0.16,-0.82 0.05,-0.29 0.11,-0.53 0.18,-0.75l0.95 0 0 2.47 3.36 0 0 1.2 -3.36 0 0 6.16c0,0.72 0.04,1.24 0.13,1.57 0.1,0.33 0.25,0.54 0.46,0.63 0.21,0.09 0.49,0.13 0.85,0.13 0.22,0 0.46,-0.02 0.74,-0.08 0.27,-0.05 0.52,-0.12 0.76,-0.2 0.24,-0.08 0.42,-0.16 0.54,-0.24l0.27 0.91c-0.18,0.15 -0.43,0.29 -0.76,0.43 -0.32,0.14 -0.67,0.25 -1.04,0.33 -0.37,0.09 -0.73,0.14 -1.06,0.14zm-15.14 -0.16l0 -10.8 1.42 0 0 1.38c0.26,-0.2 0.6,-0.41 1.03,-0.65 0.42,-0.24 0.89,-0.44 1.4,-0.62 0.51,-0.18 1.03,-0.27 1.56,-0.29 1.17,-0.02 2.01,0.3 2.5,0.94 0.49,0.64 0.74,1.76 0.74,3.36l0 6.68 -1.59 0 0 -6.7c0,-1.07 -0.15,-1.84 -0.46,-2.31 -0.3,-0.47 -0.92,-0.68 -1.86,-0.65 -0.33,0.01 -0.69,0.08 -1.07,0.21 -0.39,0.13 -0.76,0.29 -1.12,0.49 -0.36,0.2 -0.68,0.41 -0.95,0.63l0 8.33 -1.6 0zm-7.71 -0.97c1.03,0.01 1.83,-0.38 2.39,-1.16 0.57,-0.78 0.85,-1.84 0.85,-3.19 0.01,-0.83 -0.1,-1.59 -0.32,-2.26 -0.22,-0.68 -0.56,-1.22 -1.02,-1.62 -0.46,-0.4 -1.05,-0.6 -1.77,-0.61 -1.02,-0.02 -1.81,0.34 -2.39,1.08 -0.58,0.74 -0.88,1.78 -0.89,3.14 0,0.82 0.11,1.58 0.33,2.27 0.22,0.7 0.56,1.26 1.02,1.69 0.47,0.43 1.06,0.65 1.8,0.66zm-0.04 1.13c-0.87,0 -1.6,-0.16 -2.2,-0.47 -0.6,-0.31 -1.09,-0.73 -1.47,-1.27 -0.37,-0.54 -0.65,-1.15 -0.81,-1.85 -0.17,-0.69 -0.25,-1.42 -0.25,-2.18 0.02,-1.15 0.25,-2.12 0.69,-2.92 0.44,-0.79 1.02,-1.4 1.76,-1.81 0.73,-0.41 1.56,-0.62 2.47,-0.62 1.13,0 2.04,0.27 2.74,0.79 0.7,0.52 1.2,1.22 1.51,2.08 0.32,0.87 0.47,1.81 0.45,2.83 -0.01,1.15 -0.23,2.13 -0.66,2.93 -0.42,0.81 -1,1.43 -1.74,1.85 -0.73,0.42 -1.56,0.64 -2.49,0.64zm-17.3 -7.31c0,-1.2 0.17,-2.26 0.52,-3.18 0.35,-0.92 0.82,-1.7 1.43,-2.33 0.6,-0.63 1.31,-1.11 2.11,-1.44 0.8,-0.33 1.65,-0.49 2.55,-0.49 0.73,0 1.34,0.04 1.82,0.11 0.49,0.07 0.89,0.16 1.2,0.24 0.3,0.09 0.55,0.15 0.75,0.19l-0.24 1.44c-0.14,-0.05 -0.34,-0.13 -0.6,-0.24 -0.26,-0.11 -0.62,-0.21 -1.08,-0.3 -0.46,-0.09 -1.05,-0.14 -1.78,-0.14 -0.99,0 -1.87,0.23 -2.64,0.7 -0.76,0.47 -1.36,1.16 -1.8,2.05 -0.43,0.9 -0.65,1.99 -0.65,3.27 0,1.18 0.2,2.23 0.59,3.15 0.4,0.93 0.97,1.66 1.72,2.19 0.75,0.54 1.65,0.8 2.71,0.8 0.59,0 1.14,-0.04 1.65,-0.14 0.5,-0.09 0.93,-0.2 1.29,-0.34 0.36,-0.13 0.62,-0.25 0.79,-0.37l0.02 1.38c-0.29,0.09 -0.59,0.19 -0.92,0.31 -0.33,0.12 -0.72,0.23 -1.18,0.31 -0.47,0.09 -1.04,0.14 -1.73,0.14 -1.32,0 -2.47,-0.31 -3.45,-0.92 -0.98,-0.61 -1.74,-1.47 -2.28,-2.56 -0.53,-1.1 -0.8,-2.37 -0.8,-3.83zm-14.42 11.95l0 -15.62 1.43 0 0 1.28c0.15,-0.14 0.33,-0.3 0.56,-0.49 0.29,-0.24 0.67,-0.46 1.13,-0.65 0.47,-0.18 1.03,-0.28 1.7,-0.28 0.74,0 1.43,0.18 2.08,0.54 0.65,0.35 1.18,0.91 1.59,1.68 0.4,0.77 0.6,1.77 0.6,2.99 0,1.15 -0.22,2.16 -0.67,3.05 -0.45,0.89 -1.08,1.58 -1.9,2.09 -0.81,0.51 -1.76,0.77 -2.85,0.77 -0.7,0 -1.29,-0.09 -1.78,-0.26 -0.12,-0.04 -0.24,-0.08 -0.34,-0.12l0.02 1.54 0 3.48 -1.57 0zm1.57 -13.41l0 7.06c0.18,0.15 0.45,0.28 0.81,0.39 0.37,0.1 0.84,0.15 1.43,0.15 0.69,0 1.31,-0.18 1.86,-0.53 0.55,-0.36 0.99,-0.87 1.31,-1.55 0.32,-0.67 0.49,-1.49 0.5,-2.45 0.01,-1.41 -0.26,-2.46 -0.81,-3.14 -0.55,-0.69 -1.31,-1.03 -2.28,-1.03 -0.63,0 -1.19,0.12 -1.68,0.38 -0.49,0.25 -0.87,0.49 -1.14,0.72zm-10.3 8.77c-0.69,0 -1.25,-0.12 -1.67,-0.34 -0.42,-0.22 -0.74,-0.54 -0.95,-0.95 -0.22,-0.41 -0.36,-0.9 -0.44,-1.46 -0.07,-0.57 -0.11,-1.19 -0.11,-1.88l0 -6.35 1.58 0 0 6.41c0,0.91 0.07,1.59 0.21,2.06 0.14,0.47 0.37,0.78 0.69,0.94 0.32,0.16 0.77,0.25 1.33,0.25 0.36,0 0.74,-0.06 1.12,-0.16 0.38,-0.1 0.74,-0.23 1.06,-0.39 0.33,-0.15 0.59,-0.31 0.79,-0.46l0 -8.65 1.6 0 0 10.94 -0.62 0c-0.26,0 -0.45,-0.04 -0.59,-0.11 -0.14,-0.08 -0.21,-0.25 -0.21,-0.53l0 -0.59 0 0c-0.33,0.23 -0.71,0.45 -1.13,0.64 -0.43,0.19 -0.87,0.34 -1.33,0.46 -0.46,0.11 -0.9,0.17 -1.33,0.17zm-14.73 4.64l0 -15.62 1.43 0 0 1.28c0.15,-0.14 0.33,-0.3 0.56,-0.49 0.29,-0.24 0.67,-0.46 1.13,-0.65 0.47,-0.18 1.03,-0.28 1.7,-0.28 0.74,0 1.43,0.18 2.08,0.54 0.65,0.35 1.18,0.91 1.59,1.68 0.4,0.77 0.6,1.77 0.6,2.99 0,1.15 -0.22,2.16 -0.67,3.05 -0.45,0.89 -1.08,1.58 -1.9,2.09 -0.81,0.51 -1.76,0.77 -2.85,0.77 -0.7,0 -1.29,-0.09 -1.78,-0.26 -0.12,-0.04 -0.24,-0.08 -0.34,-0.12l0.02 1.54 0 3.48 -1.57 0zm1.57 -13.41l0 7.06c0.17,0.15 0.45,0.28 0.81,0.39 0.37,0.1 0.84,0.15 1.43,0.15 0.69,0 1.31,-0.18 1.86,-0.53 0.55,-0.36 0.99,-0.87 1.31,-1.55 0.32,-0.67 0.49,-1.49 0.5,-2.45 0.01,-1.41 -0.26,-2.46 -0.81,-3.14 -0.55,-0.69 -1.31,-1.03 -2.28,-1.03 -0.63,0 -1.19,0.12 -1.68,0.38 -0.49,0.25 -0.87,0.49 -1.14,0.72zm-9.19 7.64c1.03,0.01 1.83,-0.38 2.39,-1.16 0.57,-0.78 0.85,-1.84 0.85,-3.19 0.01,-0.83 -0.1,-1.59 -0.32,-2.26 -0.22,-0.68 -0.56,-1.22 -1.02,-1.62 -0.46,-0.4 -1.05,-0.6 -1.77,-0.61 -1.01,-0.02 -1.81,0.34 -2.39,1.08 -0.58,0.74 -0.88,1.78 -0.89,3.14 0,0.82 0.11,1.58 0.33,2.27 0.22,0.7 0.56,1.26 1.03,1.69 0.46,0.43 1.05,0.65 1.79,0.66zm-0.04 1.13c-0.86,0 -1.6,-0.16 -2.2,-0.47 -0.6,-0.31 -1.09,-0.73 -1.47,-1.27 -0.37,-0.54 -0.64,-1.15 -0.81,-1.85 -0.17,-0.69 -0.25,-1.42 -0.24,-2.18 0.01,-1.15 0.24,-2.12 0.68,-2.92 0.44,-0.79 1.03,-1.4 1.76,-1.81 0.74,-0.41 1.56,-0.62 2.47,-0.62 1.13,0 2.04,0.27 2.74,0.79 0.7,0.52 1.2,1.22 1.52,2.08 0.31,0.87 0.46,1.81 0.45,2.83 -0.02,1.15 -0.24,2.13 -0.67,2.93 -0.42,0.81 -1,1.43 -1.73,1.85 -0.74,0.42 -1.57,0.64 -2.5,0.64zm-13.92 -6.45c0.29,0.04 0.67,0.06 1.13,0.08 0.46,0.02 0.83,0.03 1.13,0.03 0.73,-0.01 1.39,-0.14 1.98,-0.37 0.59,-0.24 1.06,-0.63 1.4,-1.17 0.35,-0.54 0.52,-1.27 0.52,-2.19 0,-1.26 -0.32,-2.17 -0.96,-2.72 -0.64,-0.55 -1.61,-0.81 -2.9,-0.78 -0.37,0.01 -0.76,0.02 -1.17,0.04 -0.41,0.01 -0.78,0.05 -1.13,0.1l0 6.98zm-1.59 6.29l0 -14.44 0.78 0c0.53,0 1.11,-0.02 1.72,-0.06 0.6,-0.05 1.22,-0.07 1.85,-0.07 1.02,0 1.9,0.15 2.65,0.46 0.76,0.31 1.34,0.8 1.75,1.49 0.41,0.68 0.62,1.59 0.62,2.71 0,1.56 -0.49,2.77 -1.46,3.62 -0.97,0.85 -2.29,1.29 -3.97,1.3 -0.51,0 -0.98,-0.01 -1.41,-0.04 -0.43,-0.03 -0.74,-0.04 -0.94,-0.04l0 5.07 -1.59 0zm-14.58 -0.04l-0.02 -1.09c0.27,0.04 0.54,0.07 0.8,0.09 0.27,0.02 0.52,0.03 0.77,0.03 1.06,0 1.95,-0.11 2.69,-0.34 0.75,-0.23 1.31,-0.56 1.7,-1.01 0.4,-0.44 0.59,-0.98 0.59,-1.62 0,-0.57 -0.13,-1.09 -0.39,-1.56 -0.26,-0.47 -0.67,-0.83 -1.21,-1.07 -0.55,-0.25 -1.24,-0.32 -2.09,-0.23l-1.07 0.27 -0.33 -1.1c0.33,-0.07 0.64,-0.15 0.92,-0.24 0.28,-0.08 0.56,-0.17 0.83,-0.27 0.87,-0.31 1.52,-0.73 1.97,-1.26 0.44,-0.53 0.66,-1.09 0.67,-1.67 0.01,-0.77 -0.22,-1.34 -0.71,-1.69 -0.48,-0.35 -1.1,-0.53 -1.83,-0.53 -0.78,0 -1.44,0.14 -1.98,0.41 -0.54,0.27 -0.97,0.53 -1.27,0.76l-0.62 -0.91c0.24,-0.21 0.56,-0.43 0.97,-0.67 0.41,-0.23 0.87,-0.43 1.39,-0.59 0.52,-0.16 1.06,-0.24 1.64,-0.24 0.71,0 1.37,0.12 1.97,0.36 0.61,0.24 1.09,0.6 1.45,1.08 0.36,0.48 0.55,1.09 0.55,1.82 0,0.63 -0.16,1.19 -0.46,1.69 -0.31,0.51 -0.72,0.95 -1.23,1.32 -0.34,0.25 -0.7,0.46 -1.09,0.64l0 0c0.64,0.04 1.19,0.2 1.67,0.46 0.61,0.35 1.07,0.8 1.39,1.35 0.32,0.56 0.47,1.14 0.47,1.75 0,0.87 -0.24,1.62 -0.74,2.26 -0.5,0.63 -1.22,1.12 -2.16,1.46 -0.94,0.35 -2.07,0.52 -3.39,0.52 -0.3,0 -0.59,-0.02 -0.9,-0.05 -0.31,-0.03 -0.63,-0.07 -0.95,-0.13zm-9.73 -6.27l5.63 0c0.04,-0.66 -0.01,-1.26 -0.16,-1.79 -0.15,-0.53 -0.41,-0.95 -0.78,-1.26 -0.38,-0.31 -0.89,-0.47 -1.55,-0.47 -0.62,0 -1.18,0.17 -1.67,0.5 -0.49,0.33 -0.88,0.87 -1.15,1.6 -0.15,0.4 -0.26,0.88 -0.32,1.42zm-0.05 1.07c0,0.12 0,0.25 0,0.38 0.04,0.93 0.21,1.67 0.52,2.23 0.31,0.56 0.73,0.96 1.25,1.21 0.53,0.25 1.12,0.37 1.79,0.37 0.33,0 0.69,-0.04 1.07,-0.12 0.37,-0.09 0.73,-0.19 1.07,-0.32 0.33,-0.13 0.59,-0.25 0.78,-0.37l0.33 1.03c-0.24,0.19 -0.55,0.36 -0.96,0.51 -0.4,0.15 -0.84,0.27 -1.31,0.35 -0.48,0.09 -0.94,0.13 -1.39,0.13 -1.51,0 -2.68,-0.49 -3.49,-1.47 -0.81,-0.97 -1.21,-2.32 -1.21,-4.05 0,-1.08 0.19,-2.04 0.56,-2.88 0.38,-0.84 0.93,-1.5 1.64,-1.98 0.72,-0.49 1.6,-0.73 2.64,-0.74 0.57,-0.01 1.1,0.08 1.57,0.27 0.47,0.19 0.87,0.47 1.21,0.82 0.34,0.36 0.61,0.79 0.8,1.3 0.19,0.5 0.29,1.06 0.31,1.67 0,0.34 -0.01,0.64 -0.01,0.91 -0.01,0.27 -0.03,0.52 -0.07,0.75l-7.1 0zm-9.54 5.4c-0.69,0 -1.25,-0.12 -1.67,-0.34 -0.42,-0.22 -0.74,-0.54 -0.95,-0.95 -0.22,-0.41 -0.36,-0.9 -0.43,-1.46 -0.08,-0.57 -0.12,-1.19 -0.12,-1.88l0 -6.35 1.58 0 0 6.41c0,0.91 0.07,1.59 0.21,2.06 0.14,0.47 0.37,0.78 0.69,0.94 0.32,0.16 0.77,0.25 1.33,0.25 0.36,0 0.74,-0.06 1.12,-0.16 0.38,-0.1 0.74,-0.23 1.06,-0.39 0.33,-0.15 0.59,-0.31 0.8,-0.46l0 -8.65 1.59 0 0 10.94 -0.62 0c-0.26,0 -0.45,-0.04 -0.59,-0.11 -0.14,-0.08 -0.21,-0.25 -0.21,-0.53l0 -0.88 0.02 0.27c-0.34,0.24 -0.72,0.46 -1.15,0.66 -0.42,0.19 -0.87,0.34 -1.33,0.46 -0.46,0.11 -0.9,0.17 -1.33,0.17zm-11.18 0l-5.44 -14.6 1.71 0 3.69 10.3 0.74 2.32 0.72 -2.32 3.5 -10.3 1.69 0 -5.25 14.6 -1.36 0z"/>
  <path fill="#AB507C" filter="drop-shadow(1px 1px 1px rgba(0,0,0,0.3))" fill-rule="nonzero" d="M255.24 30.75c4.48,0.42 8.6,0.44 8.6,-5.96 0,-5.69 -4.07,-6.16 -8.6,-5.45l0 11.41zm-8.08 15.22l0 -32.12 12.19 -0.35c7.82,0 12.36,3.05 12.36,11.33 0,9.54 -6.62,12.11 -15.19,11.87 -0.51,-0.02 -0.93,-0.03 -1.28,-0.03l0 9.3 -8.08 0zm-19.59 0.34c-9.3,0 -13.59,-4.85 -13.57,-13.83l0.09 -18.63 8 0c-0.03,4.28 -0.55,19.75 0.51,22.87 1.49,4.43 8.19,4.47 9.69,-0.07 1.03,-3.15 0.6,-18.51 0.6,-22.8l7.96 0 0 18.76c0,8.77 -4.17,13.7 -13.28,13.7zm-42.19 -0.34l0 -32.12 12.19 -0.35c7.83,0 12.37,3.05 12.37,11.33 0,9.54 -6.62,12.11 -15.2,11.87 -0.5,-0.02 -0.93,-0.03 -1.27,-0.03l0 9.3 -8.09 0zm8.09 -15.22c4.48,0.42 8.6,0.44 8.6,-5.96 0,-5.69 -4.07,-6.16 -8.6,-5.45l0 11.41zm-73.17 0c4.48,0.42 8.61,0.44 8.61,-5.96 0,-5.69 -4.08,-6.16 -8.61,-5.45l0 11.41zm-8.08 15.22l0 -32.12 12.19 -0.35c7.82,0 12.36,3.05 12.36,11.33 0,9.54 -6.62,12.11 -15.19,11.87 -0.51,-0.02 -0.93,-0.03 -1.28,-0.03l0 9.3 -8.08 0zm-98.78 -15.91c0,-14.73 11.71,-18.58 23.39,-15.81 0.82,0.19 1.64,0.36 2.46,0.51l-0.21 6.74c-3.78,-1.95 -13.36,-3.63 -16.43,2.8 -2.25,4.71 -1.18,16 6.36,16l4.66 -0.64 0 -5.64 -4.58 -0.33 0 -5.75 11.93 0 0 16.21c-1.91,0.05 -18.84,7.48 -25.64,-5.33 -1.29,-2.43 -1.94,-5.35 -1.94,-8.76zm38.17 16.12l-8.43 -32.33 8.04 0 3.37 17.94 1.01 7.63 1.16 -7.63 4.23 -17.94 7.31 0 4.37 17.94 1.2 7.32 0.96 -7.32 3.33 -17.94 7.73 0 -8.47 32.33 -7.91 0 -4.11 -16.77 -1.02 -6.73 -0.92 6.73 -4.07 16.77 -7.78 0z"/>
  <polygon fill="#339966" filter="drop-shadow(1px 1px 1px rgba(0,0,0,0.3))" fill-rule="nonzero" points="90.09,34.18 90.09,25.48 104.3,25.48 104.3,34.18 "/>
  <circle fill="#339966" filter="drop-shadow(1px 1px 1px rgba(0,0,0,0.3))" cx="160.07" cy="28.88" r="7.6"/>
 </svg>


